<?xml version="1.0" encoding="UTF-8"?>
<!DOCTYPE svg PUBLIC "-//W3C//DTD SVG 1.1//EN" "http://www.w3.org/Graphics/SVG/1.1/DTD/svg11.dtd">
<!-- Creator: CorelDRAW 2020 (64-Bit) -->
<svg xmlns="http://www.w3.org/2000/svg" xml:space="preserve" width="8.4667mm" height="5.7342mm" version="1.1" style="shape-rendering:geometricPrecision; text-rendering:geometricPrecision; image-rendering:optimizeQuality; fill-rule:evenodd; clip-rule:evenodd"
viewBox="0 0 313.94 212.62"
 xmlns:xlink="http://www.w3.org/1999/xlink"
 xmlns:xodm="http://www.corel.com/coreldraw/odm/2003">
 <defs>
  <style type="text/css">
   <![CDATA[
    .fil0 {fill:black}
    .fil1 {fill:#CC6778}
    .fil2 {fill:#F50000}
   ]]>
  </style>
 </defs>
 <g id="Capa_x0020_1">
  <metadata id="CorelCorpID_0Corel-Layer"/>
  <g id="_2461740355504">
   <g>
    <path class="fil0" d="M209.78 134.99c-0.75,-1.39 -0.34,-6.83 -0.34,-8.98l0 -23.56c-0,-1.42 -0.48,-3.44 1.03,-3.65l28.28 -0.02c5.13,0 4.85,-0.66 4.85,4.42l0 27.89c0,2.98 0.45,3.22 -2.45,3.6 -1.78,0.24 -3.76,0.4 -5.6,0.4 -2.45,0 -24.55,0.24 -25.77,-0.11zm-45.39 -36.07c0.83,-0.33 22.5,-0.14 26.49,-0.14 4.82,0 7.01,-0.68 7.09,1.78 0.31,8.89 0.03,21.32 0.03,30.91 0,1.1 0.36,3.21 -0.75,3.54 -0.63,0.18 -26.35,0.2 -31.07,0.09 -1.74,-0.04 -2.51,0.2 -2.62,-1.73 -0.36,-6.48 -0.02,-19 -0.02,-26.58 0,-1.64 -0.49,-7.33 0.83,-7.86zm-39.65 36.16c-7.7,0 -6.83,0.84 -6.83,-4.94l0 -23.37c0,-8.71 -0.8,-8 3.81,-8l26.19 0c1.52,0 2.92,-0.11 4.1,0.33 0.34,1 0.3,1.51 0.3,2.77l0 29.96c0,3.69 -0.08,3.24 -3.83,3.24l-23.75 0zm130.29 -33.77c0,-2.26 -0.23,-2.55 2.18,-2.54l13.95 0.01c1.41,0.01 3.64,-0.39 3.57,1.2 -0.02,0.45 -0.88,2.89 -1.08,3.45 -2.65,7.27 -3.29,12.12 -9.28,18.42 -2.82,2.97 -1.09,1.49 -4.59,4.64 -2.01,1.81 -4.76,4.96 -4.76,1.39l0 -26.57zm-154.99 33.77c-1.71,-0.09 -2.18,-2.11 -2.81,-4.18 -0.27,-0.88 -0.61,-1.65 -0.97,-2.62 -2.62,-7.1 -5.62,-16.59 -7.46,-23.85 -0.38,-1.51 -1.44,-3.96 -0.97,-5.37 1.43,-0.69 11.18,-0.3 13.55,-0.3 4.11,0 5.28,-0.54 5.3,1.77 0.03,3.4 0.16,32.56 -0.11,34.05 -1.26,0.82 -4.71,0.57 -6.53,0.49zm143.14 -47.61c-1.55,0.37 -26.51,0.13 -30.81,0.14 -1.61,0 -2.91,0.44 -2.96,-1.36 -0.23,-9.31 0.02,-21.09 0.02,-30.91 0,-1.12 -0.32,-3.31 0.48,-3.77 0.65,-0.37 25.9,-0.15 30.72,-0.17 3.89,-0.02 2.97,-0.63 2.97,10.16l0 17.71c0,1.99 0.4,6.87 -0.42,8.21zm-78.67 -35.98c0.87,-0.27 25.96,-0.14 30.9,-0.09 1.74,0.02 2.51,-0.18 2.57,1.71 0.25,9.48 0.03,20.99 0.03,30.87 0,1.2 0.4,3.17 -0.77,3.54 -0.88,0.28 -22.49,0.09 -26.52,0.09 -4.55,-0 -7.03,0.81 -7.15,-1.74 -0.27,-5.65 -0.01,-12 -0.01,-17.73l0 -13.19c0.01,-1.41 -0.31,-3.08 0.95,-3.47zm-45.64 -0.02c0.93,-0.27 25.78,-0.13 30.75,-0.07 1.84,0.02 2.65,-0.3 2.7,1.66 0.23,9.55 0,20.98 0.01,30.92 0,1.39 0.3,3.2 -0.86,3.57l-30.87 0.1c-1.67,-0.03 -2.6,0.06 -2.67,-1.78 -0.38,-9.49 0.18,-21.02 -0.02,-30.92 -0.03,-1.45 -0.4,-3.1 0.96,-3.49zm136.17 2.73c0.01,-2.72 -0.29,-2.81 2.56,-2.81l30.71 0c1.14,0 1.17,-0.09 2.09,0.34 0.22,1.36 -2.24,7.59 -2.77,9.34l-4.41 13.45c-0.51,1.55 -0.89,2.94 -1.42,4.49 -0.69,1.99 -2.23,7.35 -3.27,8.59l-20.94 0.01c-2.86,0 -2.56,-0.23 -2.56,-2.69l0 -30.72zm-149 -2.68c1.24,0.53 0.7,1.41 0.77,4.19 0.04,1.55 -0.02,3.16 -0.02,4.71l0 23.56c0,1.74 0.4,2.94 -0.88,3.72 -0.93,0.36 -15.76,0.01 -19.22,0.09 -0.84,0.02 -1.88,0.37 -2.27,-0.52 -0.73,-0.48 -1.16,-3.21 -1.54,-4.42l-6.94 -22.23c-0.45,-1.42 -1.13,-2.9 -1.58,-4.26 -0.45,-1.39 -1.51,-3.17 -1.27,-4.62 1.55,-0.69 13.61,-0.34 16.41,-0.34 2.81,0 14.8,-0.34 16.52,0.14zm-106.03 -39.65l0 1.55c0.68,0.13 0.22,-0.07 0.6,0.26l0.03 0.75c-0.22,0.18 0.18,0.19 -0.62,0.27l0 1.45 0.5 0.03c3.77,11.1 8.65,9.55 20.05,16.14l5.56 3.5c13.03,8.7 20.79,23.75 25.2,38.5l4.28 13.76c2.02,6.87 3.93,14.55 5.93,21.45 0.63,2.19 1.61,4.72 2.08,6.96 0.28,1.34 0.64,1.89 0.93,3.22 0.18,0.81 0.75,2.62 1.06,3.46l4.38 13.88c0.43,1.68 2.27,5.45 1.62,7.02 -0.28,0.67 -1.36,1.92 -1.88,2.64l-3.38 5.67c-1.35,2.4 -2.74,7.7 -3.23,10.56 -0.31,1.85 -0.26,6.84 0.14,8.61 2.25,10.02 6.79,15.77 15.84,20.48 1.74,0.9 4.53,2.14 6.47,2.57 1.33,0.3 6.39,1.81 7.52,1.34 0.3,-0.36 0.13,0.09 0.27,-0.59 0.24,-1.16 -0.58,-5.7 1.06,-10.37 0.62,-1.76 1.3,-2.9 1.97,-4.24 2.26,-4.51 8.62,-10.21 3.39,-11.25 -3.79,-0.76 -7.07,-0.4 -9.34,-3.11 -3.04,-3.64 0.39,-9.03 5.3,-11.18 1.86,-0.82 3.11,-0.87 5.3,-0.92 8.21,-0.17 16.64,-0.01 24.87,-0.01 33.16,0.04 66.33,0.02 99.5,0 8.09,-0 10.09,0.29 18.18,-0.52 3.09,-0.3 7.02,-1.31 10.13,-2.23 1.67,-0.5 3.11,-1.16 4.55,-1.68 4.87,-1.77 11.75,-6.16 15.33,-9.57 1.19,-1.13 2.36,-1.93 3.25,-2.96 2.93,-3.4 5.92,-6.56 8.05,-10.6 0.72,-1.37 1.47,-2.54 2.19,-4.03l1.85 -4.37c0.63,-2.14 2.49,-6.67 3.18,-9.28 0.57,-2.14 2.44,-6.95 3.1,-9.27 0.88,-3.09 2.2,-6.26 3.11,-9.38 0.98,-3.39 2.13,-6.28 3.07,-9.37 1.85,-6.06 4.19,-12.51 6.2,-18.65 1.31,-4 3.91,-12.42 5.4,-16.25 0.36,-0.92 0.24,-1.87 0.97,-2.28l0 -4.18c-0.68,-0.37 -0.53,-1.13 -1,-1.98 -0.33,-0.58 -0.71,-1.14 -1.1,-1.71 -3.1,-4.54 -8.93,-3.84 -13.35,-3.84 -53.21,0 -106.41,0 -159.61,0l-74.44 -0c-2.44,-0.01 -2.68,-0.34 -3.81,-1.8l-2.45 -3.19c-1.49,-1.75 -7.41,-7.58 -8.69,-8.44 -0.66,-0.44 -0.94,-0.83 -1.52,-1.31 -1.64,-1.34 -4.01,-2.79 -4.94,-3.54 -1.31,-1.07 -5.32,-3.54 -7.06,-4.43 -0.64,-0.33 -1.09,-0.62 -1.75,-1.08 -2.32,-1.6 -10.79,-4.92 -13.58,-6.39 -1.06,-0.56 -2.8,-0.97 -4.19,-1.43 -2.37,-0.79 -3.21,-0.57 -4.82,0.17 -2.47,1.14 -4.13,0.92 -7.24,4.22 -1.51,1.6 -2.38,3.2 -3.17,5.29 -0.36,0.96 -0.14,1.63 -1.22,1.7z"/>
    <path class="fil0" d="M213.2 173.39c0.97,-1.22 1.06,-3.44 -0.92,-3.9 -1.29,-0.3 -51.2,-0.09 -56.25,-0.09 -3.85,0 -8.91,-0.29 -12.61,0 -2.1,0.17 -2.84,1.66 -1.91,3.53 0.57,1.14 1.65,2.43 2.47,3.76 2.3,3.74 4.44,9.54 4.65,13.98 0.07,1.58 -0.11,4.71 0.34,5.89 1.47,0.36 21.57,0.09 24.97,0.11 8.35,0.05 16.72,-0.05 25.07,0 7.19,0.04 7.36,0.65 7.28,-2.25 -0.21,-7.72 2.18,-15.02 6.92,-21.03z"/>
    <path class="fil0" d="M213.3 194.22c0.94,5.41 0.49,4.71 2.99,9.27l3.3 3.87c0.93,0.69 1.95,1.69 2.78,2.12l3.14 1.57c2.96,1 4.75,1.64 8.16,1.48 4.45,-0.22 10.2,-3.17 12.99,-6.26 8.96,-9.9 5.63,-23.61 -3.7,-29.26 -5.78,-3.5 -12.82,-3.98 -19,-0.98 -4.13,2 -7.5,5.75 -9.27,9.93 -0.7,1.65 -1.73,6.26 -1.38,8.25z"/>
    <path class="fil0" d="M103.14 196.48c0.29,2 1.81,5.55 2.69,6.86 2.79,4.16 6.2,6.64 11.02,8.25 2.87,0.96 5.45,1.43 8.36,0.6 6.2,-1.77 7.68,-2.31 12.08,-7.12 1.39,-1.51 2.58,-3.93 3.32,-6.33 1.64,-5.31 0.98,-10.73 -1.94,-15.64 -1.33,-2.24 -2.76,-3.52 -4.61,-4.99 -0.48,-0.38 -0.85,-0.77 -1.37,-1.09 -1.23,-0.77 -3.66,-1.67 -5.02,-2.14 -5.12,-1.74 -10.78,-0.64 -15.58,1.97 -1.09,0.59 -1.72,1.38 -2.77,2.11 -1.16,0.81 -1.39,1.47 -2.27,2.45 -0.44,0.49 -0.7,0.86 -1.05,1.39 -0.55,0.83 -2.03,3.86 -2.27,4.91 -0.65,2.87 -1.07,5.49 -0.59,8.76z"/>
    <path class="fil0" d="M261.48 190.63l-0.09 4.99c-0.03,0.67 0.03,0.89 0.55,1.05 0.93,0.29 5.53,-0.12 6.45,-0.33 1.9,-0.43 3.33,-0.95 4.82,-1.96 4.24,-2.88 7.27,-8.83 5.86,-13.94 -0.65,-2.36 -0.76,-3.07 -1.92,-4.83 -2,-3.06 -4.22,-4.4 -7.71,-5.67 -2.36,-0.86 -10.04,-0.55 -12.98,-0.55 -2.15,0 -4.45,0.12 -3.54,2.97 0.21,0.65 2.14,3.2 2.78,3.97 1.09,1.3 1.87,2.87 2.66,4.13 1.3,2.07 3.02,7.28 3.11,10.17z"/>
   </g>
   <path class="fil1" d="M84.42 87.27c0.39,0.89 1.42,0.53 2.27,0.52 3.46,-0.08 18.29,0.28 19.22,-0.09 1.28,-0.77 0.88,-1.98 0.88,-3.72l0 -23.56c0,-1.55 0.06,-3.16 0.02,-4.71 -0.07,-2.78 0.47,-3.66 -0.77,-4.19 0.81,1.16 0.56,1.85 0.55,4 -0.01,4.98 0.14,30.59 -0.23,31.33 -0.47,0.92 -3.09,0.57 -4.97,0.57 -3.33,0 -15.48,0.31 -16.96,-0.16z"/>
   <path class="fil2" d="M-0 14.72c0.8,-0.08 0.4,-0.09 0.62,-0.27l-0.03 -0.75c-0.38,-0.33 0.08,-0.14 -0.6,-0.26l0 1.28z"/>
  </g>
 </g>
</svg>
